<svg width="128" height="128" xmlns="http://www.w3.org/2000/svg">

 <g>
  <title>background</title>
  <rect fill="none" id="canvas_background" height="130" width="130" y="-1" x="-1"/>
 </g>
 <g>
  <title>Layer 1</title>
  <path id="svg_2" fill="#FE6D4B" d="m58,62l-33,0c0,0 0,-17.271 0,-21.448002s3.605,-4.356998 3.605,-4.356998l29.395,-3.507l0,29.312z"/>
  <path id="svg_4" fill="#9FD661" d="m100,62l-37,0l0,-29.875l32.438004,-3.615999c0,0 4.561996,-0.363001 4.561996,4.085001s0,29.405998 0,29.405998z"/>
  <path id="svg_6" fill="#48C0EB" d="m58,94.167l-29.393999,-3.563004c0,0 -3.606001,-0.061996 -3.606001,-4.167c0,-4.561996 0,-19.436996 0,-19.436996l33,0l0,27.167z"/>
  <path id="svg_8" fill="#FFCF47" d="m95.481003,99.029999l-32.481003,-4.279999l0,-27.75l37,0c0,0 0,23.250999 0,27.959s-4.518997,4.070999 -4.518997,4.070999z"/>
 </g>
</svg>